<svg id="Group_123" data-name="Group 123" xmlns="http://www.w3.org/2000/svg" width="69.854" height="63.306" viewBox="0 0 69.854 63.306">
  <path id="Path_297" data-name="Path 297" d="M353.645,333.592l3.571,1.943a1.361,1.361,0,0,1,.627.682l-3.571-1.943A1.368,1.368,0,0,0,353.645,333.592Z" transform="translate(-345.783 -281.893)" fill="none"/>
  <path id="Path_298" data-name="Path 298" d="M353.645,333.592l3.571,1.943a1.361,1.361,0,0,1,.627.682l-3.571-1.943A1.368,1.368,0,0,0,353.645,333.592Z" transform="translate(-345.783 -281.893)" fill="none"/>
  <path id="Path_299" data-name="Path 299" d="M455.911,203.272l-.9.126.727.4Z" transform="translate(-431.27 -171.991)" fill="none"/>
  <path id="Path_300" data-name="Path 300" d="M649.552,162.157l0,0,.1.017.92.5v-.916l-3.189-5.371-.049.27-.011,0-.011,5.812Z" transform="translate(-593.434 -132.454)" fill="none"/>
  <path id="Path_301" data-name="Path 301" d="M548.58,58.2l-1.368-.745,1.638,4.6.006-4.021-.043.006v.023Z" transform="translate(-509.022 -49.025)" fill="none"/>
  <path id="Path_302" data-name="Path 302" d="M350.285,365.325l.1-.062-.252-.138c0,.042-.005.083-.005.125s0,.1.006.156c.028-.014.057-.028.085-.044Z" transform="translate(-342.814 -308.486)" fill="none"/>
  <path id="Path_303" data-name="Path 303" d="M515.145,327.212l.061-.038c.061-.042.121-.088.18-.135l.045-.039c.034-.028.049-.042.1-.091s.1-.1.147-.149l.022-.022c.014-.016.03-.031.044-.049.052-.063.1-.132.157-.2l.017-.023a2.816,2.816,0,0,0,.176-.284c.033-.058.063-.116.091-.177l.019-.039c.033-.072.064-.15.1-.238.016-.041.028-.085.041-.127l.025-.081c.008-.025.011-.031.023-.078s.022-.1.033-.146l.017-.083a.3.3,0,0,0,.016-.074c.011-.063.017-.128.025-.193v-.128a2.68,2.68,0,0,0,.014-.337c0-.079,0-.155-.007-.231a3.3,3.3,0,0,0-1.492,2.9c0,.053,0,.1.006.155h0C515.05,327.275,515.1,327.244,515.145,327.212Z" transform="translate(-481.853 -274.014)" fill="none"/>
  <path id="Path_304" data-name="Path 304" d="M431.852,338.832c.061-.042.121-.088.18-.135l.044-.038c.036-.03.069-.063.1-.094q.075-.07.146-.146l.022-.023.042-.049c.052-.061.1-.128.157-.2l.028-.034a3.158,3.158,0,0,0,.168-.273c.031-.058.063-.118.091-.18l.019-.038c.033-.072.064-.149.1-.237.014-.042.028-.088.041-.132l.023-.077a.642.642,0,0,0,.023-.078c.013-.049.023-.1.033-.147l.017-.083a.308.308,0,0,0,.016-.074c.011-.061.017-.125.025-.188l.009-.074v-.06a2.427,2.427,0,0,0,.016-.337c0-.073,0-.145-.006-.216a3.291,3.291,0,0,0-1.5,2.906c0,.044,0,.086.005.129.047-.026.095-.057.142-.087Z" transform="translate(-411.562 -283.857)" fill="none"/>
  <path id="Path_305" data-name="Path 305" d="M663.324,57.046h0l-.078.137-2.073-1.141c-.013.191-.028.368-.046.53l.335-.047.1.017,1.872,1.018h.016l.257-.028.063-.009c.074-.009.144-.022.213-.034l.06-.011.147-.03.055-.011.15-.038a3.694,3.694,0,0,1-1.068-.355v0Z" transform="translate(-605.089 -47.829)" fill="none"/>
  <path id="Path_306" data-name="Path 306" d="M682.242,64.869l-.033-.122-.018,0,.05.125Z" transform="translate(-622.854 -55.168)" fill="none"/>
  <path id="Path_307" data-name="Path 307" d="M599.188,315.521a2.5,2.5,0,0,0,.211-.382l.017-.039c.02-.047.044-.1.061-.157s.033-.1.047-.157v-.028c.009-.028.017-.058.025-.088.014-.058.025-.118.036-.177v-.039a.347.347,0,0,0,.016-.078,1.6,1.6,0,0,0,.025-.213v-.108a2.844,2.844,0,0,0,.014-.346c0-.05,0-.1-.005-.144l-.59.083,0,2.065a1.982,1.982,0,0,0,.131-.166Z" transform="translate(-552.732 -265.003)" fill="none"/>
  <path id="Path_308" data-name="Path 308" d="M699.443,37.34h.028l.029.008-.166-.09-.15.024c.07.014.141.03.216.048Z" transform="translate(-637.184 -31.988)" fill="none"/>
  <path id="Path_309" data-name="Path 309" d="M704.7,37.284l-.588-.32a3.077,3.077,0,0,0-.337-.01l1.3.706A.877.877,0,0,0,704.7,37.284Z" transform="translate(-641.052 -31.731)" fill="#2a2b2c"/>
  <path id="Path_310" data-name="Path 310" d="M557.737,65.312l.008-4.234-.074.01-.006,4.021Z" transform="translate(-517.837 -52.076)" fill="#2a2b2c"/>
  <path id="Path_311" data-name="Path 311" d="M566.281,104.842l-2.719-1.479.038.108,2.688,1.462.23-.138v-.023l-.157.022Z" transform="translate(-522.811 -87.736)" fill="#2a2b2c"/>
  <path id="Path_312" data-name="Path 312" d="M529.967,111.195l-.078.065-2.327-1.266-.138.019,2.466,1.342.2-.157-.112.016Z" transform="translate(-492.335 -93.328)" fill="#2a2b2c"/>
  <path id="Path_313" data-name="Path 313" d="M437.289,109.708l-3.514-1.911-.06-.1,0-1.8-.073.01v1.813l.081.138L437.3,109.8l.23-.138v-.023l-.16.023Z" transform="translate(-413.249 -89.872)" fill="#2a2b2c"/>
  <path id="Path_314" data-name="Path 314" d="M333.525,101.191l-3.513-1.91-.06-.1.011-6.092-.067.009-.011,6.1.081.138,3.571,1.943.232-.138v-.024l-.163.023Z" transform="translate(-325.746 -79.07)" fill="#2a2b2c"/>
  <path id="Path_315" data-name="Path 315" d="M627.76,52.457l-.048-.008-2.19-1.192-.794.213c0-.218-.008-.436-.015-.653l-.51-.277.033-.18.454-.064c-.038-.733-.105-1.465-.207-2.192l-1.368.37-.087.067-.877-.344v.364l-1.4.2c.024.411.038.823.042,1.235l.1.146,3.183,1.253a2.935,2.935,0,0,0,1.483,2.429l3.571,1.937.079-.141C628.2,55.07,627.727,54.042,627.76,52.457Z" transform="translate(-571.039 -41.133)" fill="#2a2b2c"/>
  <path id="Path_316" data-name="Path 316" d="M481.055,125.157l-.155.061-.452-.246v.091l.446.243.224-.089.024-.074-.086.012Z" transform="translate(-452.718 -105.959)" fill="#2a2b2c"/>
  <path id="Path_317" data-name="Path 317" d="M430.972,13.858l.008-4.166.112-.067.011-.063,3.544-.5.071.013,3.511,1.91-.018.1.031,0v.161l.893-2.732.123-.048.009-.048,4.99-.7.072.013,2.139,1.163,0-1.375.112-.066.012-.064,11.419-1.6.072.013.571.31,3.823-1.034.074,0,2.122.832.073-.086.039-.047.017-.017c.041-.044.072-.078.105-.111l.064-.067c.034-.034.071-.069.108-.1l.05-.049.009-.008c.069-.061.139-.121.212-.177L465.4,5.2l.18-.133.038-.027.139-.092.105-.066.1-.058.11-.063.1-.056.114-.06.157-.078.053-.024.171-.077.1-.042.193-.075.088-.033c.094-.034.191-.069.29-.1h.016c.1-.031.194-.061.29-.088l.1-.028.215-.056.121-.028.215-.049.125-.027.235-.044.113-.02.356-.055c.13-.019.257-.034.382-.049l.094-.011c.125-.013.248-.025.368-.034s.246-.017.363-.022h.425c.122,0,.233,0,.342.009h.083a3.016,3.016,0,0,1,.313.025c.1.011.216.028.313.045l.077.014c.094.017.186.036.277.06h.019c.1.024.2.055.313.094l.055.02c.1.034.191.075.282.118l.024.011.116.06,3.5,1.9-.032.065.091.047v0l.072-.139-3.571-1.949q-.058-.033-.117-.061l-.023-.011c-.092-.044-.19-.085-.29-.121l-.056-.02c-.113-.039-.218-.072-.313-.1h-.019c-.091-.022-.186-.042-.282-.061l-.077-.013c-.1-.017-.2-.033-.321-.045s-.207-.02-.313-.027h-.083c-.11,0-.222-.009-.346-.009l-.025,0h-.4c-.119,0-.238.013-.367.022s-.254.022-.379.034l-.1.011c-.125.014-.254.03-.384.049s-.241.036-.359.056l-.111.02c-.082.014-.157.028-.238.045l-.127.025-.215.049-.122.03c-.074.017-.146.038-.216.056l-.1.028-.29.088h-.017c-.1.033-.2.067-.293.1l-.089.033-.19.081-.1.042-.172.077-.056.025-.157.08-.116.06-.105.056-.111.064-.1.06-.107.066-.143.094-.038.028c-.063.042-.122.088-.182.133l-.05.039c-.074.058-.144.118-.213.179l-.014.011-.049.047-.11.1-.066.069c-.033.034-.066.067-.107.113l-.019.02-.038.045-.043.051-2.105-.825h-.1l0,0-3.8,1.029-.555-.3-.1-.019v0L446.527,7.315l-.015.087-.115.068V8.76l-2.035-1.108-.1-.019-.011.011-5.059.711-.009.05-.113.045-.805,2.463L434.753,9l-.1-.019-.009,0-3.6.5-.014.078-.133.078v4.141l-.522.073v.08Z" transform="translate(-410.491 -3.622)" fill="#2a2b2c"/>
  <path id="Path_318" data-name="Path 318" d="M664.134,60.045l-.147.03-.06.011c-.069.013-.139.025-.213.034l-.063.009-.257.028h-.016l-1.872-1.018-.1-.017-.335.047c0,.029-.006.056-.01.083l.346-.049.072.014,1.844,1h.062c.085-.009.171-.017.262-.03h.063l.216-.034.06-.013.157-.03.055-.013c.039-.009.078-.017.116-.028l.033.081.147-.05-.02-.075.019-.006-.1-.017.033.122h0l-.05-.125L664.339,60l-.15.038Z" transform="translate(-605.037 -50.426)" fill="#2a2b2c"/>
  <path id="Path_319" data-name="Path 319" d="M715.773,45.258l-.053.1.067.034.007-.012,0,0,0,0,.079-.138-2.341-1.273-.056.041Z" transform="translate(-649.236 -37.645)" fill="#2a2b2c"/>
  <path id="Path_320" data-name="Path 320" d="M546.971,56.787l.038.105,1.368.745.232-.138v-.023l-.163.023-.079.047Z" transform="translate(-508.82 -48.457)" fill="#2a2b2c"/>
  <path id="Path_321" data-name="Path 321" d="M698.052,37.454c.1.019.213.042.332.072h.041l.024.008c.13.034.226.064.313.1l.024.01-.294-.16-.029-.008h-.028l-.042-.009c-.076-.019-.147-.034-.216-.048q-.1.017-.187.036l.029,0Z" transform="translate(-636.175 -32.12)" fill="#2a2b2c"/>
  <path id="Path_322" data-name="Path 322" d="M534.815,90.542l.03,0-.006-.019-.023.019Z" transform="translate(-498.568 -76.903)" fill="#2a2b2c"/>
  <path id="Path_323" data-name="Path 323" d="M387.066,93.661l-3.513-1.91-.06-.1.011-6.092-.08.011-.01,6.1.081.138,3.571,1.943.232-.138v-.024l-.152.021Z" transform="translate(-370.889 -72.72)" fill="#2a2b2c"/>
  <path id="Path_324" data-name="Path 324" d="M308.489,52.638l.23-.138v-.023l-.156.022-.083.05-3.514-1.911-.06-.1.006-3.185.112-.066.011-.063,11.419-1.606.072.014.72.392v-.4l.111-.067.011-.063,3.544-.5.072.014,3.511,1.91-.019.1.03,0v.159l.019,0,.053-.293-3.571-1.943-.1-.017-3.611.508-.015.082-.12.072v.313l-.609-.332-.1-.017h0l-11.494,1.614-.016.089-.111.066v3.251l.081.138Z" transform="translate(-304.62 -38.443)" fill="#2a2b2c"/>
  <path id="Path_325" data-name="Path 325" d="M661.422,55.587c0,.024,0,.048,0,.071L663.49,56.8l.078-.137h0v0l-.081-.045-.04.074Z" transform="translate(-605.334 -47.445)" fill="#2a2b2c"/>
  <path id="Path_326" data-name="Path 326" d="M619.2,233.664l-.836-.455v.081l.848.462.232-.138v-.022l-.162.023Z" transform="translate(-569.024 -197.239)" fill="#2a2b2c"/>
  <path id="Path_327" data-name="Path 327" d="M554.5,243.765l-.562-.306.038.108.529.288.232-.138v-.022l-.154.022Z" transform="translate(-514.693 -205.882)" fill="#2a2b2c"/>
  <path id="Path_328" data-name="Path 328" d="M685.6,223.472l-1.069-.582v.075l1.08.588.232-.136V223.4l-.16.022Z" transform="translate(-624.828 -188.536)" fill="#2a2b2c"/>
  <path id="Path_329" data-name="Path 329" d="M534.412,153.686l.112-.066.012-.064,3.542-.5.072.013,3.511,1.91-.018.1.031,0v.158l.018,0,.052-.293L538.172,153l-.1-.017,0-.008-3.6.508-.016.09-.123.073-.009,4.876.075.21Z" transform="translate(-498.156 -129.572)" fill="#2a2b2c"/>
  <path id="Path_330" data-name="Path 330" d="M606.677,132.135l-3.571-1.943-.1-.017,0,0-3.8.536-.01.055-.1.033-1.25,2.541-3.515-1.912-.1-.017-3.795.533-.025.138-.1.1,1.227,2.066-3.544-1.928-.094-.017-3.609.507-.016.09-.1.062-.017,8.938-.69-.375-.1-.017,0,0-2.24.315v.079l2.243-.315.072.013.784.427.017-9.019.112-.066.012-.064,3.544-.5.072.013,3.51,1.91-.018.1.031,0v.158l.011,0,.049-.27,3.189,5.371v.916l-.92-.5-.1-.017,0,0-2.247.316v.076l2.244-.315.071.013,1.02.555,0-1.045.012-.007-.006-.006-4.423-7.445.063-.065.021-.112,3.726-.525.072.014,3.511,1.91-.018.1.031,0,.01.017,1.314-2.665.123-.039.007-.042,3.726-.523.072.014,3.511,1.91-.018.1.029,0-.087.17.109-.015Z" transform="translate(-537.633 -110.344)" fill="#2a2b2c"/>
  <path id="Path_331" data-name="Path 331" d="M624.375,143.732h0Z" transform="translate(-574.096 -121.78)" fill="#2a2b2c"/>
  <path id="Path_332" data-name="Path 332" d="M517.262,242.328l-.077.064-2.323-1.263-.123.017,2.454,1.335.174-.144-.1.014Z" transform="translate(-481.638 -203.917)" fill="#2a2b2c"/>
  <path id="Path_333" data-name="Path 333" d="M522,221.658l.03,0-.006-.02-.023.019Z" transform="translate(-487.763 -187.476)" fill="#2a2b2c"/>
  <path id="Path_334" data-name="Path 334" d="M308.532,178.72l-3.513-1.911-.06-.1.022-11.755.111-.066.012-.064,6.215-.874c.146-.02.288-.036.428-.049l.114-.009c.113-.009.223-.016.331-.02h.555a2.9,2.9,0,0,1,.291.02l.1.009c.127.016.24.033.342.052h.022c.085.017.157.033.23.052l.036.009h.019c.056.016.11.033.157.05s.125.041.182.063.1.044.157.066l.039.017a.637.637,0,0,1,.066.028l.113.058,2.577,1.409,0-2.453.112-.066.011-.063,9.8-1.379.072.013,3.433,1.868.787-2.405.123-.049.008-.046,4.99-.7.072.013,3.511,1.91-.018.1.031,0,.03.084.039-.222-3.571-1.943-.1-.017-5.059.711-.011.062-.111.044-.767,2.346-3.366-1.83-.1-.017-9.871,1.387-.017.093-.115.068,0,2.375-2.468-1.343-.116-.06a.727.727,0,0,0-.07-.03l-.038-.016c-.052-.023-.1-.047-.157-.067s-.118-.042-.182-.064l-.166-.05h-.017l-.041-.013c-.074-.019-.149-.034-.233-.052h-.023c-.1-.019-.218-.036-.349-.052l-.1-.011c-.1-.009-.194-.016-.295-.02h-.293l.008-.038h-.269c-.108,0-.219.011-.335.02l-.116.041c-.141.014-.284.03-.431.05l-6.267.881-.014.076-.122.072-.022,11.823.081.138,3.571,1.943.232-.138v-.023l-.157.022Z" transform="translate(-304.663 -135.788)" fill="#2a2b2c"/>
  <path id="Path_335" data-name="Path 335" d="M400.313,264.027l-.944-.514.065.121.883.481.232-.136v-.022l-.154.022Z" transform="translate(-384.343 -222.794)" fill="#2a2b2c"/>
  <path id="Path_336" data-name="Path 336" d="M455.358,203.194l-.087.012-.171.522-.727-.4-.119.017.894.486Z" transform="translate(-430.629 -171.925)" fill="#2a2b2c"/>
  <path id="Path_337" data-name="Path 337" d="M469.143,256.91l-.257-.14v.083l.251.136.224-.088.021-.064-.088.012Z" transform="translate(-442.968 -217.108)" fill="#2a2b2c"/>
  <path id="Path_338" data-name="Path 338" d="M356.959,256.825l-.07.068-3.51-1.91-.049-.049-.3-.583-.08.011.322.619.063.066,3.572,1.943.152-.15-.083.012Z" transform="translate(-345.194 -215.069)" fill="#2a2b2c"/>
  <path id="Path_339" data-name="Path 339" d="M642.487,353.831l-2.268-1.247-.043.05,2.338,1.272.076-.133-.055-.031Z" transform="translate(-587.421 -297.91)" fill="#2a2b2c"/>
  <path id="Path_340" data-name="Path 340" d="M652.245,328.251l-.038.071h0c.024.011.047.023.07.036l.012-.023.074-.138-2.973-1.617q0,.059-.005.118Z" transform="translate(-595.186 -275.981)" fill="#2a2b2c"/>
  <path id="Path_341" data-name="Path 341" d="M563.217,365.777l-2.2-1.2-.05.061,2.253,1.226.23-.138v-.02l-.145.021Z" transform="translate(-520.618 -308.025)" fill="#2a2b2c"/>
  <path id="Path_342" data-name="Path 342" d="M487.883,366.953l-3.516-1.91c-.024-.013-.046-.029-.07-.042l-.037.093.043.026,3.572,1.943.085-.157-.039-.022Z" transform="translate(-455.934 -308.381)" fill="#2a2b2c"/>
  <path id="Path_343" data-name="Path 343" d="M599.187,315.587c.044-.064.085-.132.121-.2s.067-.127.1-.2l.017-.041c.022-.053.042-.108.063-.166s.034-.1.049-.157l.009-.028c.008-.028.017-.058.024-.089.014-.056.025-.114.036-.172l0-.045.016-.08c.011-.072.019-.144.025-.218v-.11c0-.116.013-.235.014-.353,0-.065,0-.125-.007-.187l-.019,0c0,.048.005.094.005.144a2.843,2.843,0,0,1-.014.346v.108a1.573,1.573,0,0,1-.025.213.346.346,0,0,1-.016.078v.039c-.011.06-.022.119-.036.177-.008.03-.016.06-.025.088v.028c-.014.052-.03.1-.047.157s-.041.11-.061.157l-.017.039a2.5,2.5,0,0,1-.211.382l-.016.025a1.976,1.976,0,0,1-.13.166v.075c.045-.051.089-.1.129-.159Z" transform="translate(-552.731 -264.99)" fill="#2a2b2c"/>
  <path id="Path_344" data-name="Path 344" d="M350.344,364.952c.041-.023.08-.05.121-.075l.066-.044.038-.027-.407-.221c0,.028,0,.056,0,.085l.252.138-.1.062-.069.038c-.028.016-.056.03-.085.044,0,.033,0,.066,0,.1.037-.017.074-.037.111-.057Z" transform="translate(-342.842 -308.03)" fill="#2a2b2c"/>
  <path id="Path_345" data-name="Path 345" d="M406.845,379.853l-3.175-1.717v.121l3.178,1.729.086-.151h0l.005-.01-.061-.034Z" transform="translate(-387.97 -319.458)" fill="#2a2b2c"/>
  <path id="Path_346" data-name="Path 346" d="M309.64,323.815l-3.5-1.9a5.41,5.41,0,0,1-2.6-5.014c0-.121,0-.24.008-.359,0-.023.009-.157.009-.157a1.052,1.052,0,0,1,.013-.2l.02-.186a1.2,1.2,0,0,1,.017-.157.29.29,0,0,1,.014-.094l.014-.1a.869.869,0,0,1,.022-.143c.008-.047.011-.06.017-.088l.02-.107.028-.141a.44.44,0,0,1,.022-.1l.025-.1c.009-.045.02-.089.031-.132s.02-.07.03-.1l.023-.083c.013-.045.027-.089.039-.133l.034-.1.027-.075c.017-.055.031-.094.045-.135l.008-.025.017-.042q.07-.183.157-.367l.038-.086c.058-.13.124-.26.191-.387l.014-.03.036-.063c.044-.078.086-.157.132-.227.02-.036.044-.07.066-.107.047-.075.094-.149.144-.221,0,0,.033-.052.042-.064l.013-.016c.069-.1.133-.185.2-.27l.016-.022c.07-.089.146-.179.222-.266l.017-.02.052-.055c.058-.064.116-.125.174-.186l.074-.074c.074-.072.13-.127.19-.18l.055-.053.022-.019c.122-.107.221-.19.313-.263s.2-.157.313-.233l.039-.03.114-.075.086-.056c.052-.034.107-.066.157-.1l.1-.063.18-.1.1-.052c.081-.044.168-.086.254-.127l.027-.014q.143-.066.287-.127l.091-.036.2-.08.116-.041.19-.064.124-.039.19-.056.127-.034.2-.049.125-.03.221-.044.108-.022c.11-.02.223-.038.335-.053s.194-.025.291-.036l.085-.008.221-.016h.083c.078,0,.157-.008.237-.008v.085h.085l-.013-.149-.027.009c-.1,0-.2,0-.293.009h-.083a2.125,2.125,0,0,0-.223.017l-.086.008c-.1.009-.2.02-.295.034s-.227.034-.338.055l-.11.022c-.074.014-.149.028-.222.045l-.125.028-.2.05-.129.034-.191.056-.125.039-.191.066-.116.041-.205.081-.092.036c-.1.041-.194.083-.291.13l-.025.013c-.088.041-.174.083-.259.128l-.1.052c-.061.033-.122.066-.182.1l-.077.047-.03.017-.157.1-.088.056-.118.078-.038.028c-.119.083-.222.157-.321.237s-.193.157-.313.265l-.025.02-.055.053c-.06.055-.117.11-.18.172l-.086.085q-.089.091-.174.188l-.056.058-.016.019c-.077.089-.157.18-.226.271l-.016.02c-.067.086-.133.175-.2.273l-.013.016-.042.066c-.05.074-.1.147-.147.222l-.066.108c-.045.075-.089.157-.132.229l-.039.067-.014.028c-.067.127-.132.259-.193.392l-.038.086c-.055.124-.1.248-.157.368l-.019.047-.008.023c-.017.045-.031.091-.047.136l-.025.075c-.013.034-.023.07-.034.1s-.027.089-.041.135l-.023.083c-.009.034-.02.07-.03.107l-.033.133-.023.1-.013.086-.028.143-.017.091c-.008.034-.014.069-.02.1s-.016.1-.022.146l-.016.1-.014.1c0,.053-.013.108-.017.157l-.011.1-.009.091c0,.067-.009.135-.013.2,0,0-.009.13-.009.157,0,.119-.008.24-.008.362a5.492,5.492,0,0,0,2.642,5.075l3.571,1.943.076-.135-.078-.045Z" transform="translate(-303.465 -261.586)" fill="#2a2b2c"/>
  <path id="Path_347" data-name="Path 347" d="M350.869,282.5h.257l.218.014h.077c.092.009.186.02.279.033h.052c.077.011.157.025.227.039l.085.017c.072.014.143.03.213.047l.05.013h.013l.157.044.078.023c.075.022.149.047.224.075s.147.056.218.086l.072.031c.055.025.1.044.143.066l.019.008c.053.027.108.055.157.085l3.437,1.869c.009-.02.017-.039.027-.059l.034-.08c.058-.127.122-.258.191-.389l.017-.033.036-.063c.042-.077.085-.157.13-.226l.064-.1c.049-.078.1-.157.157-.232,0,0,.03-.047.039-.058l.009-.014c.069-.1.139-.193.211-.284l.034-.044c.063-.077.124-.157.188-.224l.024-.028.053-.056c.055-.061.11-.121.166-.179l.091-.091a2.2,2.2,0,0,1,.174-.157l.058-.056.017-.014c.116-.1.213-.185.313-.26l.038-.03c.092-.071.185-.138.279-.205l.044-.033.08-.052.11-.072c.05-.033.1-.064.157-.1l.107-.066.169-.094.1-.056.2-.1.081-.039c.1-.047.19-.088.282-.125l.072-.03.219-.086.108-.039.193-.066.111-.034.2-.06.125-.033.2-.049.124-.03.218-.044.108-.022c.108-.019.218-.038.331-.053s.216-.028.324-.039l.1-.008c.077,0,.157-.013.232-.017h.1c.092,0,.186-.008.279-.008h.417l.216.014h.091c.081.008.157.017.241.028h.045c.092.014.185.03.276.047l.074.016.2.045.047.011.041.013c.05.013.1.027.144.041l.092.028.147.05s.063.02.08.028c.061.022.122.047.182.072l.039.016c.071.03.143.063.212.1s.125.063.182.094l3.484,1.916-.041.075.075.041c.039-.1.079-.2.125-.292l.034-.08c.058-.127.122-.258.191-.389l.016-.033a.276.276,0,0,1,.036-.063c.044-.077.086-.157.13-.226.025-.041.044-.074.064-.1.05-.078.1-.157.157-.233l.038-.058.009-.011c.07-.1.139-.194.212-.285l.038-.045c.061-.075.122-.157.186-.222l.023-.03.053-.056c.055-.061.11-.119.166-.177l.091-.091c.056-.056.114-.111.172-.165l.058-.056.019-.016c.116-.1.213-.185.313-.259l.039-.03c.092-.071.183-.139.277-.205l.044-.031.081-.053.108-.072.157-.1.108-.066.168-.094.1-.056.2-.1.08-.039c.1-.047.19-.088.282-.127l.069-.016c.074-.031.147-.06.221-.088l.108-.038.193-.067.121-.038.19-.055.124-.034.2-.05h.017l.1-.025.218-.044.108-.022c.108-.019.218-.038.329-.053s.218-.028.326-.039l.1-.008.232-.017h.1c.094,0,.186,0,.28-.008h.415a1.63,1.63,0,0,1,.216.014l.091.008c.081.008.157.017.241.028h.047c.092.014.183.03.274.047l.075.016.2.045.049.011.042.013.143.041.092.028.147.05.08.028c.061.022.122.047.182.072l.039.016c.07.03.141.063.212.1s.125.063.182.094l3.088,1.679.005-2.68.107-.063.012-.066,5.452-.772c.132-.019.26-.033.387-.047l.107-.011.29-.023h.091q.179-.012.353-.014h.442a2.617,2.617,0,0,1,.273.014h.052c.1.008.207.019.313.031l.078.011q.116.016.226.038l.081.016q.141.027.277.061l.064.019.157.044.1.031.114.039.113.044.089.034.1.045.092.042.019.009q.074.035.146.075l3.5,1.9-.034.077,0,.005.055.03.01-.019.066-.143-3.561-1.937a1.458,1.458,0,0,0-.157-.077l-.011.016-.094-.042-.1-.047-.091-.036-.114-.044-.116-.039-.1-.033c-.05-.016-.1-.031-.157-.044l-.064-.019c-.091-.023-.185-.044-.282-.064l-.081-.014c-.075-.014-.157-.027-.229-.038l-.08-.011c-.1-.014-.2-.025-.313-.033h-.052c-.089-.008-.182-.013-.276-.016h-.1l-.182-.02h-.166c-.116,0-.235.008-.356.014h-.092l-.291.023-.107.011c-.128.014-.257.03-.39.049l-5.5.772-.018.1-.119.071,0,2.616-3-1.635c-.058-.031-.116-.063-.186-.1s-.143-.067-.215-.1l-.039-.016c-.061-.025-.122-.05-.186-.074l-.08-.028c-.05-.019-.1-.036-.157-.052l-.092-.028-.144-.041-.045-.013-.047-.011c-.066-.017-.133-.031-.2-.047l-.075-.016c-.092-.017-.185-.034-.28-.049h-.045c-.08-.011-.157-.022-.244-.03l-.092-.008c-.072,0-.144-.011-.218-.014h-.362l.013,0h-.06c-.094,0-.188,0-.284.008h-.1l-.235.017-.1.009c-.11.011-.218.023-.329.039s-.222.035-.334.053l-.107.022-.221.044-.1.025h-.019l-.2.049-.125.034-.191.056-.122.039-.194.066-.108.039-.224.088-.071.028c-.094.041-.185.08-.287.128l-.08.039c-.067.033-.136.066-.2.1l-.1.056c-.056.031-.114.063-.169.1l-.11.066c-.053.031-.1.064-.157.1s-.074.047-.108.072l-.085.055-.044.031c-.094.067-.186.136-.279.207l-.041.031c-.1.075-.194.157-.313.26l-.02.017-.06.056c-.06.055-.117.11-.174.166-.031.03-.061.061-.092.092-.056.058-.113.118-.168.179l-.055.06-.023.028c-.064.074-.127.149-.188.224l-.038.047c-.074.092-.143.186-.215.287l-.009.014-.038.058q-.08.118-.157.235l-.066.107c-.044.075-.088.157-.13.226,0,0-.031.053-.038.067s-.011.022-.016.033c-.07.13-.135.262-.194.393l-.034.08c-.021.046-.04.094-.06.142l-3.487-1.9c-.058-.031-.116-.063-.185-.1s-.143-.067-.218-.1l-.038-.014c-.061-.027-.122-.05-.185-.074l-.08-.028q-.075-.028-.157-.052l-.094-.028-.144-.041-.044-.013-.047-.011-.2-.047-.077-.016c-.091-.017-.185-.034-.279-.049h-.045c-.081-.011-.157-.022-.246-.03h-.091c-.072,0-.146-.011-.219-.014h-.356l.019-.023h-.064c-.094,0-.188,0-.284.008h-.1l-.235.017-.1.009c-.108.011-.216.023-.326.039s-.224.033-.335.053l-.107.022-.221.044-.124.03-.2.049-.127.034-.194.058-.119.038-.193.066-.111.039-.219.088-.075.028c-.092.041-.185.081-.285.128l-.081.039-.2.1-.1.056-.171.1-.108.066c-.053.031-.1.064-.157.1l-.11.072-.085.055-.042.033c-.1.066-.188.135-.28.207l-.041.03c-.1.077-.194.157-.313.26l-.022.017-.058.056-.175.166-.091.092c-.058.058-.113.119-.168.179l-.056.061-.022.027c-.066.074-.128.157-.19.226l-.038.045c-.072.092-.143.188-.213.287l-.009.014c-.009.011-.039.058-.039.058-.053.078-.1.157-.157.237-.022.034-.044.07-.064.107q-.067.11-.132.226l-.038.067L357,284.4c-.069.128-.135.262-.194.393l-.017.04-3.328-1.811-.166-.086h-.017c-.044-.022-.089-.041-.146-.066l-.072-.033c-.072-.031-.144-.06-.223-.088s-.157-.053-.229-.077l-.078-.023-.157-.044h-.017l-.049-.011c-.07-.017-.143-.034-.216-.049l-.085-.017c-.077-.016-.157-.028-.23-.039l-.053-.009c-.094-.013-.19-.023-.285-.031h-.074l-.222-.016h-.332l-.012.149h.07Z" transform="translate(-343.383 -234.507)" fill="#2a2b2c"/>
  <path id="Path_348" data-name="Path 348" d="M385.659,395.517l-.9-.489-.061.054.968.527.232-.143v-.018l-.161.023Z" transform="translate(-371.97 -333.704)" fill="#2a2b2c"/>
  <path id="Path_349" data-name="Path 349" d="M515.21,327.043l.063-.039c.064-.044.125-.089.185-.138l.047-.039.1-.094c.055-.05.1-.1.157-.157l.02-.022.047-.05a1.681,1.681,0,0,0,.157-.208l.017-.02a2.976,2.976,0,0,0,.182-.295c.033-.058.064-.119.092-.182l.019-.038c.034-.077.067-.157.1-.246.016-.039.027-.081.039-.122l.028-.089c.009-.031.017-.056.023-.081s.024-.1.035-.157l.017-.08a.535.535,0,0,1,.016-.078c.011-.064.019-.13.027-.2v-.13c.009-.113.014-.229.014-.343,0-.088,0-.173-.009-.257l-.069.042c0,.076.007.152.007.231a2.68,2.68,0,0,1-.014.337v.128c-.008.064-.014.13-.025.193a.3.3,0,0,1-.016.074l-.017.083c-.011.049-.02.1-.033.146s-.016.053-.023.078l-.025.081c-.013.042-.025.086-.041.127-.031.088-.063.166-.1.238l-.019.039c-.028.061-.058.119-.091.177a2.8,2.8,0,0,1-.175.284l-.017.023c-.052.07-.1.139-.157.2-.014.017-.03.033-.044.049l-.022.022c-.047.052-.1.1-.147.149s-.066.063-.1.091l-.045.039c-.06.047-.119.092-.18.135l-.061.038c-.049.031-.1.063-.144.089h0c0,.025,0,.05,0,.074l.026-.013C515.112,327.108,515.162,327.076,515.21,327.043Z" transform="translate(-481.885 -273.787)" fill="#2a2b2c"/>
  <path id="Path_350" data-name="Path 350" d="M431.858,338.714s.052-.031.061-.039a2.267,2.267,0,0,0,.185-.138l.045-.039c.038-.031.072-.064.107-.1l.157-.149.022-.023c.016-.017.031-.033.045-.05a1.85,1.85,0,0,0,.157-.205l.025-.034a2.634,2.634,0,0,0,.174-.282q.05-.089.094-.183l.019-.038c.034-.075.066-.157.1-.246.016-.044.028-.088.042-.133l.023-.077c.009-.03.017-.055.025-.083s.023-.1.033-.157l.017-.083c.008-.03.013-.052.017-.075.009-.061.017-.124.023-.185l.009-.082v-.063c.009-.114.014-.229.016-.343,0-.092,0-.182-.01-.27-.024.014-.048.029-.071.044,0,.071.006.143.006.216a2.431,2.431,0,0,1-.016.337v.06l-.009.074c-.008.063-.014.127-.025.188a.308.308,0,0,1-.016.074l-.017.083c-.009.05-.02.1-.033.147a.62.62,0,0,1-.023.078l-.023.077c-.013.044-.027.089-.041.132-.031.088-.063.164-.1.237l-.019.038c-.028.063-.06.122-.091.18a3.15,3.15,0,0,1-.168.273l-.028.034c-.052.072-.1.139-.157.2l-.042.049-.022.023q-.071.075-.146.146c-.034.031-.067.064-.1.094l-.044.038c-.06.047-.119.092-.18.135l-.06.038c-.047.031-.095.061-.142.087,0,.033,0,.065,0,.1l.019-.01C431.751,338.779,431.8,338.746,431.858,338.714Z" transform="translate(-411.59 -283.62)" fill="#2a2b2c"/>
  <path id="Path_351" data-name="Path 351" d="M656.182,60.543l-.147.05L656,60.512c-.038.011-.077.019-.116.028l-.055.013-.157.03-.06.013-.216.034h-.063c-.091.013-.177.02-.262.03h-.062l-1.843-1-.072-.014-.346.049a5.266,5.266,0,0,1-.178.932l-1.366.366,2.19,1.192.048.008c0-.026,0-.051,0-.077l3.248-.456c.038.8.663,1.2,2.228,1l.064-.009c1.336-.188,1.957-.693,1.957-1.233,0-.379-.194-.746-1.263-.765l-1.41-.042a17.26,17.26,0,0,1-2.089-.141l-.019.006Z" transform="translate(-596.723 -50.865)" fill="#1d1d1e"/>
  <path id="Path_352" data-name="Path 352" d="M642.818,62.157l-.033.18.51.277c-.005-.174-.014-.348-.023-.522Z" transform="translate(-589.621 -52.932)" fill="#1d1d1e"/>
  <path id="Path_353" data-name="Path 353" d="M558.979,64.94l2.719,1.479.081-.048h-.006l.017-8.57-3.655.513-.008,4.234Z" transform="translate(-518.227 -49.313)" fill="#1d1d1e"/>
  <path id="Path_354" data-name="Path 354" d="M530.709,109.734l-.472-1.472-1.934.271,2.327,1.266Z" transform="translate(-493.077 -91.867)" fill="#1d1d1e"/>
  <path id="Path_355" data-name="Path 355" d="M691.951,36.969l.588.32a.877.877,0,0,1,.371.376l-1.3-.706a4.608,4.608,0,0,0-.562.046h-.006l.166.09.294.16-.024-.01c-.088-.031-.183-.061-.313-.1l-.023-.008H691.1c-.119-.03-.229-.053-.332-.072h-.034l-.029,0c-.95.2-1.351.62-1.353,1.106,0,.338.194.718,1.028.741l1.161.049a10.152,10.152,0,0,1,3.835.484l.053-.1-2.3-1.251.056-.041.12-.089-.136.019A1.185,1.185,0,0,0,691.951,36.969Z" transform="translate(-628.895 -31.736)" fill="#1d1d1e"/>
  <path id="Path_356" data-name="Path 356" d="M517.51,68.041l-1.155,3.876h0l2.891-.406v0l.023-.019-1.134-3.536Z" transform="translate(-483 -57.873)" fill="#1d1d1e"/>
  <path id="Path_357" data-name="Path 357" d="M481.055,23.275v0l-.092.013L485.022,10.9l5.056-.714.792,2.224,1.4.759.08-.047h0l.006-3.251,11.488-1.615-.006,2.887.877.344.087-.067-.017,0-.4-3.228,4.144-1.114.088.713a24.721,24.721,0,0,1,.194,4.427l2.026,1.1.04-.074a2.552,2.552,0,0,1-1.165-2.45c.006-1.866,1.142-3.318,3.386-4.073l0-.008h0l.144-.06.01.02A10.606,10.606,0,0,1,514.96,6.3a6.471,6.471,0,0,1,3.707.29l.032-.065-3.5-1.9-.116-.06-.023-.011c-.091-.042-.185-.083-.282-.118l-.055-.02c-.118-.039-.218-.071-.313-.094h-.019c-.091-.024-.183-.042-.277-.06l-.077-.014c-.1-.017-.208-.034-.313-.045a3.015,3.015,0,0,0-.313-.025h-.083c-.108-.009-.219-.009-.342-.009h-.425c-.117,0-.243.013-.363.022s-.243.022-.368.034l-.094.011c-.125.014-.252.03-.382.049L511,4.333l-.113.02-.235.044-.125.027-.215.049-.121.028-.215.056-.1.028c-.1.027-.19.056-.29.088h-.016c-.1.031-.2.066-.29.1l-.088.033L509,4.881l-.1.042L508.725,5l-.053.024-.157.078-.114.06-.1.056-.11.063-.1.058-.105.066-.139.092-.038.027-.18.133-.049.038c-.072.056-.143.116-.212.177l-.009.008-.05.049c-.038.033-.074.067-.108.1l-.064.067c-.033.033-.064.067-.1.111l-.017.017-.039.047-.073.086-2.122-.832-.074,0-3.823,1.034-.571-.31-.072-.013-11.419,1.6-.012.064-.112.066,0,1.375-2.139-1.163-.072-.013-4.99.7-.009.048-.123.048-.893,2.732-.021,11.392.452.246Z" transform="translate(-452.719 -4.077)" fill="#1d1d1e"/>
  <path id="Path_358" data-name="Path 358" d="M434.155,105.028l3.514,1.911.08-.047h0l.008-4.28-3.655.514,0,1.8Z" transform="translate(-413.628 -87.103)" fill="#1d1d1e"/>
  <path id="Path_359" data-name="Path 359" d="M330.375,96.519l3.513,1.91.081-.048h0l.016-8.57-3.653.513-.011,6.092Z" transform="translate(-326.108 -76.308)" fill="#1d1d1e"/>
  <path id="Path_360" data-name="Path 360" d="M308.94,49.662l11.488-1.614-.006,3.251-2.806.394-.011,6.092.06.1,3.513,1.91.081-.048h0l.022-11.821,3.581-.5.019-.1-3.511-1.91-.072-.014-3.544.5-.011.063-.111.067v.4l-.72-.392-.072-.014-11.419,1.606-.011.063-.112.066-.006,3.185.06.1,3.514,1.911.083-.05h-.008Z" transform="translate(-305 -38.856)" fill="#1d1d1e"/>
  <path id="Path_361" data-name="Path 361" d="M434.693,38.364l-.07-.013-3.544.5-.011.063-.112.067-.008,4.166-.6.084,0,2.523,4.251-.6.008-4.279,3.582-.5.018-.1Z" transform="translate(-410.466 -32.911)" fill="#1d1d1e"/>
  <path id="Path_362" data-name="Path 362" d="M517.921,240.872l-.472-1.47-1.928.271,2.323,1.263Z" transform="translate(-482.297 -202.461)" fill="#1d1d1e"/>
  <path id="Path_363" data-name="Path 363" d="M690.343,138.021l2.356-4.777,3.764-.529.018-.1-3.511-1.91-.072-.014-3.726.523-.007.042-.123.039-1.314,2.665,2.328,4.1Z" transform="translate(-627.523 -110.783)" fill="#1d1d1e"/>
  <path id="Path_364" data-name="Path 364" d="M581.105,156.277l5.842-.821-.005,2.716.836.455.083-.049h-.006l.022-11.821,3.581-.5.018-.1-3.509-1.91-.072-.013-3.544.5-.012.064-.112.066-.017,9.019-.784-.427-.072-.013-2.243.315Z" transform="translate(-537.605 -122.202)" fill="#1d1d1e"/>
  <path id="Path_365" data-name="Path 365" d="M538.553,153.544l-.072-.013-3.542.5-.012.064-.112.066L534.8,159.2l3,8.42.562.306.083-.049h-.006l.022-11.821,3.582-.5.018-.1Z" transform="translate(-498.559 -130.045)" fill="#1d1d1e"/>
  <path id="Path_366" data-name="Path 366" d="M647.324,149.218l0,2.557,1.069.582.083-.049h-.006l.008-3.687-4.459-7.506,3.766-.528.018-.1-3.511-1.91-.072-.014-3.726.525-.02.112-.063.065,4.423,7.445.006.006-.012.007,0,1.045-1.02-.555-.07-.013-2.244.315,0,2.524Z" transform="translate(-587.614 -117.42)" fill="#1d1d1e"/>
  <path id="Path_367" data-name="Path 367" d="M354.218,219.638h0a1.428,1.428,0,0,0,1.383-1.5c0-.83-.47-1.242-1.379-1.116l-2.413.34v2.617Z" transform="translate(-344.231 -183.567)" fill="#1d1d1e"/>
  <path id="Path_368" data-name="Path 368" d="M504.71,199.16l-1.155,3.878,2.89-.406v-.005l.023-.019-1.133-3.535Z" transform="translate(-472.206 -168.449)" fill="#1d1d1e"/>
  <path id="Path_369" data-name="Path 369" d="M336.9,160.865l-.072-.013-4.99.7-.008.046-.123.049-.786,2.405-3.433-1.868-.072-.013-9.8,1.379-.011.063-.112.066,0,2.453-2.578-1.409-.113-.058a.633.633,0,0,0-.066-.028l-.039-.017c-.053-.022-.1-.044-.157-.066s-.135-.045-.182-.063-.1-.034-.157-.05h-.019l-.036-.009c-.074-.019-.146-.034-.23-.052h-.022c-.1-.019-.215-.036-.342-.052l-.1-.009a2.9,2.9,0,0,0-.291-.02H312.6c-.108,0-.218.011-.331.02l-.114.009c-.139.013-.282.028-.428.049l-6.215.874-.012.064-.111.066-.022,11.755.06.1,3.513,1.911.08-.048h0l.022-11.823,6.267-.881c3.038-.428,4.744.74,4.738,3.85a4.787,4.787,0,0,1-1.592,3.644l1.646,3.043.944.514.083-.049h-.006l.022-11.821,9.871-1.387L331,167.317l-1.2.17-.21.641-.893-.486-3.951.556,0,1.506,6.024-.846,0,2.562-6.024.846,0,1.507,6.259-.88-.006,2.989.257.14.151-.059-.088.012,4.052-12.388,5.035-.71.018-.1Z" transform="translate(-305.067 -136.218)" fill="#1d1d1e"/>
  <path id="Path_370" data-name="Path 370" d="M353.81,253.128l3.51,1.91.07-.068-1.468-2.818-2.464.345.3.583Z" transform="translate(-345.625 -213.213)" fill="#1d1d1e"/>
  <path id="Path_371" data-name="Path 371" d="M644.709,328.885l-2.861-1.552a6.578,6.578,0,0,1-1.4,3.956l2.268,1.247.048-.089a1.675,1.675,0,0,1-.778-1.456,2.248,2.248,0,0,1,1.8-2.167,1.538,1.538,0,0,1,.881.133h0Z" transform="translate(-587.651 -276.615)" fill="#1d1d1e"/>
  <path id="Path_372" data-name="Path 372" d="M600.895,312.222l-1.271.178c0,.062.007.122.007.187,0,.117-.014.237-.014.353v.11c-.006.074-.014.146-.025.218l-.016.08,0,.045c-.011.058-.022.116-.036.172-.006.031-.016.061-.023.089l-.009.028c-.014.052-.028.1-.049.157s-.041.113-.063.166l-.017.041c-.03.069-.061.13-.1.2s-.077.133-.121.2l-.017.027c-.04.055-.084.108-.129.159l-.006,3.153,1.88-.265v-.006a2.66,2.66,0,0,0,2.4-2.977C603.292,312.65,602.3,312.023,600.895,312.222Z" transform="translate(-552.701 -263.842)" fill="#1d1d1e"/>
  <path id="Path_373" data-name="Path 373" d="M497.738,280.439l-3.5-1.9q-.072-.041-.146-.075l-.019-.009-.092-.042-.1-.045-.089-.034-.113-.044-.114-.039-.1-.031-.157-.044-.064-.019q-.136-.035-.277-.061l-.081-.016q-.11-.022-.226-.038l-.078-.011c-.107-.013-.208-.023-.313-.031h-.052a2.617,2.617,0,0,0-.273-.014h-.442q-.174,0-.353.014h-.091l-.29.023-.107.011c-.127.014-.255.028-.387.047l-5.452.772-.012.066-.107.063-.005,2.68-3.088-1.679c-.056-.031-.111-.06-.182-.094s-.141-.067-.211-.1l-.039-.016c-.06-.025-.121-.05-.182-.072l-.08-.028-.147-.05-.092-.028-.143-.041-.042-.013-.049-.011-.2-.045-.075-.016c-.091-.017-.182-.033-.274-.047h-.047c-.085-.011-.16-.02-.241-.028l-.091-.008a1.629,1.629,0,0,0-.216-.014h-.415c-.094.008-.186.008-.28.008h-.1l-.232.017-.1.008c-.108.011-.215.023-.326.039s-.221.034-.329.053l-.108.022-.218.044-.1.025h-.017l-.2.05-.124.034-.19.055-.121.038-.193.067-.108.038c-.074.028-.147.056-.221.088l-.069.016c-.092.039-.183.08-.282.127l-.08.039-.2.1-.1.056-.168.094-.108.066-.157.1-.108.072-.081.053-.044.031c-.094.066-.185.135-.277.205l-.039.03c-.1.074-.2.157-.313.259l-.019.016-.058.056c-.058.053-.116.108-.172.164l-.091.091c-.056.058-.111.116-.166.177l-.053.056-.023.03c-.064.066-.125.147-.186.222l-.038.045c-.072.091-.141.185-.212.285l-.009.011-.038.058c-.056.077-.107.155-.157.233-.02.031-.039.064-.064.1-.044.069-.086.149-.13.226a.276.276,0,0,0-.036.063l-.016.033c-.069.13-.133.262-.191.388l-.034.08c-.046.1-.086.194-.125.292a5.213,5.213,0,0,1,2.484,4.893,7.812,7.812,0,0,1-.538,2.889c.024.013.046.029.07.042l3.516,1.91.037-.069a5.228,5.228,0,0,1-2.432-4.865,6.981,6.981,0,0,1,6.219-7.177c3.768-.53,6.2,1.647,6.2,5.434a7.31,7.31,0,0,1-1.575,4.659l2.2,1.2.083-.05h-.008l.022-11.823,5.5-.774a6.358,6.358,0,0,1,3.839.417l0-.005Z" transform="translate(-445.662 -234.996)" fill="#1d1d1e"/>
  <path id="Path_374" data-name="Path 374" d="M517.669,321.474a2.925,2.925,0,0,0-1.065.369c.005.084.009.17.009.257,0,.114,0,.23-.014.343v.13c-.008.067-.016.133-.027.2a.534.534,0,0,0-.016.078l-.017.08c-.011.056-.028.132-.034.157s-.014.05-.023.081l-.028.089c-.013.041-.023.083-.039.122-.031.089-.064.169-.1.246l-.019.038c-.028.063-.06.124-.092.182a2.979,2.979,0,0,1-.182.295l-.017.02a1.69,1.69,0,0,1-.157.208l-.047.05-.02.022c-.053.055-.1.107-.157.157l-.1.094-.047.039c-.06.049-.121.094-.185.138l-.063.039c-.049.033-.1.064-.149.092l-.026.013a2.221,2.221,0,0,0,2.606,2.343,3.15,3.15,0,0,0,2.628-3.309C520.29,322.174,519.1,321.274,517.669,321.474Z" transform="translate(-481.901 -271.651)" fill="#1d1d1e"/>
  <path id="Path_375" data-name="Path 375" d="M434.314,333.194a2.919,2.919,0,0,0-1.048.36c.006.088.01.178.01.27,0,.114-.006.229-.016.343v.063l-.009.081c-.006.061-.014.124-.023.185,0,.023-.009.045-.017.075l-.017.083c-.009.056-.025.129-.033.157s-.016.053-.025.083l-.023.077c-.014.045-.027.089-.042.133-.033.089-.064.171-.1.246l-.019.038q-.044.094-.094.183a2.635,2.635,0,0,1-.174.282l-.025.034a1.864,1.864,0,0,1-.157.205c-.014.017-.03.033-.045.05l-.022.023-.157.149c-.034.033-.069.066-.107.1l-.045.039a2.26,2.26,0,0,1-.185.138c-.009.008-.061.039-.061.039-.056.031-.107.064-.157.092l-.019.01a2.223,2.223,0,0,0,2.607,2.346l-.008,0a3.148,3.148,0,0,0,2.626-3.309C436.932,333.894,435.747,332.994,434.314,333.194Z" transform="translate(-411.611 -281.535)" fill="#1d1d1e"/>
  <path id="Path_376" data-name="Path 376" d="M311.2,300.317c-.08,0-.158.008-.237.008h-.083l-.221.016-.085.008c-.1.011-.179.02-.291.036s-.226.033-.335.053l-.108.022-.221.044-.125.03-.2.049-.127.034-.19.056-.124.039-.19.064-.116.041-.2.08-.091.036q-.144.061-.287.127l-.027.014c-.086.041-.172.083-.254.127l-.1.052-.18.1-.1.063c-.05.033-.1.064-.157.1l-.086.056-.114.075-.039.03c-.116.077-.221.16-.313.233s-.191.157-.313.263l-.022.019-.055.053c-.06.053-.116.108-.19.18l-.074.074c-.058.061-.116.122-.174.186l-.052.055-.017.02c-.077.088-.152.177-.222.266l-.016.022c-.067.085-.132.172-.2.269l-.013.016c-.009.013-.042.064-.042.064-.05.072-.1.146-.144.221-.022.036-.045.07-.066.107-.045.07-.088.149-.132.227l-.036.063-.014.03c-.067.127-.133.257-.191.387l-.038.086q-.086.183-.157.367l-.017.042-.008.025c-.014.041-.028.08-.045.135l-.027.075-.034.1c-.013.044-.027.088-.039.133l-.023.083c-.009.034-.019.063-.03.1s-.022.086-.031.132l-.025.1a.441.441,0,0,0-.022.1l-.028.141-.02.107c-.006.028-.009.041-.017.088a.871.871,0,0,0-.022.143l-.014.1a.29.29,0,0,0-.014.094,1.2,1.2,0,0,0-.017.157l-.02.186a1.055,1.055,0,0,0-.013.2s-.009.133-.009.157c-.008.119-.008.238-.008.359a5.41,5.41,0,0,0,2.6,5.014l3.5,1.9.036-.067a5.317,5.317,0,0,1-2.487-4.894,7,7,0,0,1,6.27-7.185c2.595-.365,5.239.616,5.664,3.735l-3.586.5a1.768,1.768,0,0,0-2.005-.885,3.174,3.174,0,0,0-2.747,3.117l.407.221-.038.027-.066.044c-.041.025-.08.052-.121.075l-.071.039c-.037.02-.074.04-.111.057a2.249,2.249,0,0,0,2.63,2.315,2.623,2.623,0,0,0,2.273-1.852l-2.413.338v-2.026l5.894-.829L319.57,311l3.175,1.717.034-.062a5.23,5.23,0,0,1-2.42-4.858,6.977,6.977,0,0,1,6.22-7.177,5.975,5.975,0,0,1,3.635.5l.041-.075-3.484-1.916c-.056-.031-.113-.06-.182-.094s-.141-.067-.212-.1l-.039-.016c-.06-.025-.121-.05-.182-.072-.017-.008-.08-.028-.08-.028l-.147-.05-.092-.028c-.047-.014-.094-.028-.144-.041l-.041-.013-.047-.011-.2-.045-.074-.016c-.091-.017-.183-.033-.276-.047h-.045c-.085-.011-.16-.02-.241-.028h-.091l-.216-.014h-.417c-.092,0-.186.008-.279.008h-.1c-.075,0-.155.017-.232.017l-.1.008c-.108.011-.212.023-.324.039s-.223.034-.331.053l-.108.022-.218.044-.124.03-.2.049-.125.033-.2.06-.111.034-.193.066-.108.039-.219.086-.072.03c-.092.038-.183.078-.282.125l-.081.039-.2.1-.1.056-.169.094-.107.066c-.055.031-.107.063-.157.1l-.11.072-.08.052-.044.033c-.094.067-.186.135-.279.205l-.038.03c-.1.075-.2.157-.313.26l-.017.014-.058.056a2.215,2.215,0,0,0-.174.157l-.091.091c-.056.058-.111.117-.166.179l-.053.056-.023.028c-.064.067-.125.147-.188.224l-.034.044c-.072.091-.143.185-.212.284l-.009.014c-.009.011-.039.058-.039.058-.056.075-.108.154-.157.232l-.064.1c-.045.069-.088.149-.13.226l-.036.063-.017.033c-.069.13-.133.262-.191.389l-.034.08c-.01.02-.018.039-.027.059l-3.437-1.869c-.049-.03-.1-.058-.157-.085l-.019-.008c-.044-.022-.088-.041-.143-.066l-.072-.031c-.07-.03-.143-.058-.218-.086s-.149-.053-.224-.075l-.078-.023-.157-.044h-.013l-.05-.013c-.07-.017-.141-.033-.213-.047l-.085-.017c-.07-.014-.15-.028-.227-.039h-.052c-.092-.013-.186-.024-.279-.033h-.077l-.218-.014h-.257v.083H311.2Z" transform="translate(-303.87 -252.326)" fill="#1d1d1e"/>
  <path id="Path_377" data-name="Path 377" d="M386.066,389.478l-.049-1.556a5.121,5.121,0,0,1-.928,1.113l.9.489Z" transform="translate(-372.3 -327.711)" fill="#1d1d1e"/>
  <path id="Path_378" data-name="Path 378" d="M671,17.115a10.606,10.606,0,0,0-1.717.379l-.06.018h0l-.091.031c-2.243.755-3.38,2.207-3.386,4.073a2.552,2.552,0,0,0,1.165,2.45l.081.045a3.694,3.694,0,0,0,1.068.355l.036.007.018,0,.1.017a17.263,17.263,0,0,0,2.089.141l1.41.042c1.069.019,1.263.385,1.263.765,0,.541-.62,1.045-1.957,1.233l-.064.009c-1.565.205-2.19-.2-2.228-1l-3.248.456c0,.026,0,.051,0,.077-.033,1.586.443,2.614,1.446,3.158a6.746,6.746,0,0,0,4.024.345h.06c3.715-.523,5.554-2.06,5.554-4.624a2.478,2.478,0,0,0-1.254-2.459l-.067-.034a10.153,10.153,0,0,0-3.835-.484l-1.161-.049c-.834-.024-1.028-.4-1.028-.741,0-.485.4-.9,1.353-1.106q.09-.019.187-.036l.15-.024h.006a4.61,4.61,0,0,1,.562-.046,3.075,3.075,0,0,1,.337.01,1.185,1.185,0,0,1,1.224,1.019l.136-.019,3.085-.434c.034-1.712-.51-2.721-1.461-3.243l-.091-.047A6.471,6.471,0,0,0,671,17.115Z" transform="translate(-608.76 -14.897)" fill="none" stroke="#2a2b2c" stroke-miterlimit="10" stroke-width="1"/>
  <path id="Path_379" data-name="Path 379" d="M637.562,28.606c0-.028.007-.055.01-.083.018-.162.033-.339.046-.53,0-.024,0-.047,0-.071a24.727,24.727,0,0,0-.194-4.427l-.088-.713L633.2,23.9l.4,3.228.017,0,1.368-.37c.1.727.168,1.459.207,2.192.009.174.017.348.023.522.007.218.013.435.015.653l.795-.213,1.366-.366A5.272,5.272,0,0,0,637.562,28.606Z" transform="translate(-581.534 -19.78)" fill="none" stroke="#2a2b2c" stroke-miterlimit="10" stroke-width="1"/>
  <path id="Path_380" data-name="Path 380" d="M495.4,49.723l-.072-.2-1.638-4.6-.038-.105-.792-2.224-5.056.714-4.058,12.388.092-.013.086-.012,3.551-.5.486-1.629,2.629-.369.138-.019,1.934-.271.472,1.472.006.019.112-.016,3.619-.509-.579-1.627-.038-.107Zm-3.623.4-.03,0-2.891.406h0l1.155-3.876.627-.089L491.77,50.1Z" transform="translate(-455.499 -36.486)" fill="none" stroke="#2a2b2c" stroke-miterlimit="10" stroke-width="1"/>
  <path id="Path_381" data-name="Path 381" d="M410.808,52.342l-3.581.5-.022,11.821h0l.152-.021,3.455-.486.008-4.279.525-.074.073-.01,3.655-.514-.008,4.28h0l.16-.023,3.448-.485v-.27l.021-11.392v-.161l-.031,0-3.582.5-.008,4.279-4.251.6,0-2.523v-.08l0-1.515v-.159Z" transform="translate(-390.951 -43.773)" fill="none" stroke="#2a2b2c" stroke-miterlimit="10" stroke-width="1"/>
  <path id="Path_382" data-name="Path 382" d="M340.063,65.543l.006-3.251-11.488,1.614-.006,3.251h.008l.156-.022.052-.007.067-.009,3.654-.513-.016,8.57h0l.163-.023,3.444-.484.017-8.57,1.052-.148.08-.011Z" transform="translate(-324.641 -53.1)" fill="none" stroke="#2a2b2c" stroke-miterlimit="10" stroke-width="1"/>
  <path id="Path_383" data-name="Path 383" d="M675.976,143.586l-3.764.529-2.356,4.777-.287.041-2.328-4.1-.01-.017-.031,0-3.766.528,4.459,7.506-.008,3.687h.006l.16-.022,3.447-.484.006-3.673,4.412-8.608.087-.17Z" transform="translate(-607.036 -121.653)" fill="none" stroke="#2a2b2c" stroke-miterlimit="10" stroke-width="1"/>
  <path id="Path_384" data-name="Path 384" d="M633.645,164.861l-5.843.821,0-2.524v-.076l.011-5.812v-.158l-.031,0-3.581.5-.022,11.821h.006l.162-.023,9.286-1.305v-.694Z" transform="translate(-573.936 -133.064)" fill="none" stroke="#2a2b2c" stroke-miterlimit="10" stroke-width="1"/>
  <path id="Path_385" data-name="Path 385" d="M567.475,174.161l-5.842.821.005-2.524v-.079l.012-5.81v-.158l-.031,0-3.582.5-.022,11.821h.006l.154-.022,9.294-1.306v-.535Z" transform="translate(-518.133 -140.907)" fill="none" stroke="#2a2b2c" stroke-miterlimit="10" stroke-width="1"/>
  <path id="Path_386" data-name="Path 386" d="M480.934,176.236l-.075-.21-.787-2.21-.03-.084-.031,0-5.035.71-4.052,12.388.088-.012.088-.012,3.553-.5.486-1.629,2.65-.372.122-.017,1.928-.271.472,1.47.007.023.1-.014,3.631-.509-.081-.227-.038-.108Zm-1.976,5.021-.03,0-2.89.406,1.155-3.878.627-.088,1.133,3.535Z" transform="translate(-444.688 -147.08)" fill="none" stroke="#2a2b2c" stroke-miterlimit="10" stroke-width="1"/>
  <path id="Path_387" data-name="Path 387" d="M415.762,190.879l-6.259.881,0-1.507,6.024-.846,0-2.562-6.024.846,0-1.506,3.951-.556.119-.017.9-.126.087-.012,1.2-.169.006-3.123-9.871,1.387-.022,11.821h.006l.154-.022L415.756,194v-.135Z" transform="translate(-389.838 -154.206)" fill="none" stroke="#2a2b2c" stroke-miterlimit="10" stroke-width="1"/>
  <path id="Path_388" data-name="Path 388" d="M338.08,203.3a4.788,4.788,0,0,0,1.592-3.644c.006-3.11-1.7-4.277-4.738-3.85l-6.267.881-.022,11.823h0l.156-.022,3.458-.488v-3.054l.188-.026.08-.011L335,204.56l1.468,2.818.014.028.083-.012,3.467-.493-.238-.44-.065-.121Zm-5.806-3.882,2.413-.34c.909-.127,1.38.285,1.379,1.116a1.428,1.428,0,0,1-1.383,1.5h0l-2.413.338Z" transform="translate(-324.7 -165.621)" fill="none" stroke="#2a2b2c" stroke-miterlimit="10" stroke-width="1"/>
  <path id="Path_389" data-name="Path 389" d="M653.02,336.937c-.023-.012-.046-.025-.07-.036a1.538,1.538,0,0,0-.881-.133,2.248,2.248,0,0,0-1.8,2.167,1.675,1.675,0,0,0,.778,1.456l.055.031a1.532,1.532,0,0,0,.965.175,2.246,2.246,0,0,0,1.8-2.167A1.665,1.665,0,0,0,653.02,336.937Z" transform="translate(-595.93 -284.559)" fill="none" stroke="#2a2b2c" stroke-miterlimit="10" stroke-width="1"/>
  <path id="Path_390" data-name="Path 390" d="M587.358,296.577c0-.039,0-.078.006-.118.006-.141.01-.284.01-.428,0-2.114-.6-3.8-2.119-4.618l-.055-.03a6.358,6.358,0,0,0-3.839-.417l-5.5.774-.022,11.823h.008l.145-.021,5.351-.751a7.041,7.041,0,0,0,4.577-2.207l.043-.05A6.578,6.578,0,0,0,587.358,296.577Zm-6.013,2.947v.006l-1.88.265.006-3.153v-.075l0-2.065.59-.083.019,0,1.271-.178c1.409-.2,2.4.428,2.394,2.308A2.66,2.66,0,0,1,581.345,299.524Z" transform="translate(-533.161 -245.859)" fill="none" stroke="#2a2b2c" stroke-miterlimit="10" stroke-width="1"/>
  <path id="Path_391" data-name="Path 391" d="M504.518,305.172c.008-3.787-2.427-5.963-6.2-5.434a6.981,6.981,0,0,0-6.218,7.177,5.228,5.228,0,0,0,2.431,4.865l.039.022a5.928,5.928,0,0,0,3.724.547,7.152,7.152,0,0,0,4.593-2.457l.05-.061A7.31,7.31,0,0,0,504.518,305.172Zm-6.212,3.81a2.22,2.22,0,0,1-2.606-2.343c0-.024,0-.049,0-.074,0-.052-.006-.1-.006-.155a3.3,3.3,0,0,1,1.492-2.9l.068-.042a2.925,2.925,0,0,1,1.065-.369c1.434-.2,2.621.7,2.617,2.573A3.15,3.15,0,0,1,498.306,308.982Z" transform="translate(-462.549 -253.277)" fill="none" stroke="#2a2b2c" stroke-miterlimit="10" stroke-width="1"/>
  <path id="Path_392" data-name="Path 392" d="M421.118,316.892A5.213,5.213,0,0,0,418.634,312l-.075-.041a5.975,5.975,0,0,0-3.635-.5,6.977,6.977,0,0,0-6.22,7.177,5.23,5.23,0,0,0,2.42,4.858l.061.034a5.938,5.938,0,0,0,3.716.542,6.934,6.934,0,0,0,5.641-4.2l.037-.093A7.812,7.812,0,0,0,421.118,316.892Zm-6.211,3.81.008,0a2.223,2.223,0,0,1-2.607-2.346c0-.032,0-.065,0-.1s-.005-.085-.005-.129a3.291,3.291,0,0,1,1.5-2.907c.024-.015.047-.03.071-.044a2.919,2.919,0,0,1,1.048-.36c1.434-.2,2.618.7,2.615,2.573A3.148,3.148,0,0,1,414.908,320.7Z" transform="translate(-392.216 -263.161)" fill="none" stroke="#2a2b2c" stroke-miterlimit="10" stroke-width="1"/>
  <path id="Path_393" data-name="Path 393" d="M339.216,327.774l-5.894.829v2.026l2.413-.338a2.623,2.623,0,0,1-2.273,1.852,2.249,2.249,0,0,1-2.63-2.315c0-.032,0-.065,0-.1,0-.052-.006-.1-.006-.156s0-.083.005-.125,0-.057,0-.085a3.174,3.174,0,0,1,2.747-3.117,1.768,1.768,0,0,1,2.005.885l3.586-.5c-.425-3.119-3.069-4.1-5.664-3.735a7,7,0,0,0-6.27,7.185,5.317,5.317,0,0,0,2.487,4.894l.078.045a5.421,5.421,0,0,0,3.369.533,5.823,5.823,0,0,0,3.07-1.362l.061-.054a5.123,5.123,0,0,0,.928-1.113l.049,1.556.161-.023,1.77-.248,0-2.7v-.12Z" transform="translate(-323.511 -272.809)" fill="none" stroke="#2a2b2c" stroke-miterlimit="10" stroke-width="1"/>
  <path id="Path_394" data-name="Path 394" d="M567.853,33.159l.006-2.887-11.488,1.615-.006,3.251h0l.163-.023.043-.006.074-.01,3.655-.513-.017,8.57h.005l.157-.022,3.45-.485.016-8.57,2.537-.357,1.4-.2Z" transform="translate(-516.741 -26.096)" fill="none" stroke="#2a2b2c" stroke-miterlimit="10" stroke-width="1"/>
</svg>
